<mxfile host="app.diagrams.net" modified="2024-07-22T06:40:06.962Z" agent="Mozilla/5.0 (Windows NT 10.0; Win64; x64) AppleWebKit/537.36 (KHTML, like Gecko) Chrome/126.0.0.0 Safari/537.36 Edg/126.0.0.0" etag="4YZJzwFokMeO9cJAOHVu" version="24.6.4" type="github">
  <diagram name="第 1 页" id="hl7vtJmRBvKKqAJnhUNW">
    <mxGraphModel dx="1213" dy="746" grid="1" gridSize="10" guides="1" tooltips="1" connect="1" arrows="1" fold="1" page="1" pageScale="1" pageWidth="827" pageHeight="1169" math="0" shadow="0">
      <root>
        <mxCell id="0" />
        <mxCell id="1" parent="0" />
        <mxCell id="RDxqro6T1Xwg9U0lS2Xa-1" value="Y" style="rounded=0;whiteSpace=wrap;html=1;fillColor=#dae8fc;strokeColor=#6c8ebf;shadow=0;glass=0;" vertex="1" parent="1">
          <mxGeometry x="120" y="240" width="60" height="40" as="geometry" />
        </mxCell>
        <mxCell id="RDxqro6T1Xwg9U0lS2Xa-2" value="k" style="rounded=0;whiteSpace=wrap;html=1;fillColor=#f8cecc;strokeColor=#b85450;" vertex="1" parent="1">
          <mxGeometry x="320" y="240" width="40" height="40" as="geometry" />
        </mxCell>
        <mxCell id="RDxqro6T1Xwg9U0lS2Xa-4" value="next[k]" style="rounded=0;whiteSpace=wrap;html=1;shadow=0;glass=0;fillColor=#d5e8d4;strokeColor=#82b366;" vertex="1" parent="1">
          <mxGeometry x="180" y="240" width="40" height="40" as="geometry" />
        </mxCell>
        <mxCell id="RDxqro6T1Xwg9U0lS2Xa-6" value="j" style="rounded=0;whiteSpace=wrap;html=1;fillColor=#fff2cc;strokeColor=#d6b656;" vertex="1" parent="1">
          <mxGeometry x="640" y="240" width="40" height="40" as="geometry" />
        </mxCell>
        <mxCell id="RDxqro6T1Xwg9U0lS2Xa-9" value="......" style="rounded=0;whiteSpace=wrap;html=1;" vertex="1" parent="1">
          <mxGeometry x="360" y="240" width="80" height="40" as="geometry" />
        </mxCell>
        <mxCell id="RDxqro6T1Xwg9U0lS2Xa-10" value="" style="endArrow=classic;startArrow=classic;html=1;rounded=0;" edge="1" parent="1">
          <mxGeometry width="50" height="50" relative="1" as="geometry">
            <mxPoint x="120" y="310" as="sourcePoint" />
            <mxPoint x="320" y="310" as="targetPoint" />
          </mxGeometry>
        </mxCell>
        <mxCell id="RDxqro6T1Xwg9U0lS2Xa-11" value="X" style="edgeLabel;html=1;align=center;verticalAlign=middle;resizable=0;points=[];fontSize=15;" vertex="1" connectable="0" parent="RDxqro6T1Xwg9U0lS2Xa-10">
          <mxGeometry x="0.0867" y="1" relative="1" as="geometry">
            <mxPoint as="offset" />
          </mxGeometry>
        </mxCell>
        <mxCell id="RDxqro6T1Xwg9U0lS2Xa-12" value="" style="endArrow=classic;startArrow=classic;html=1;rounded=0;" edge="1" parent="1">
          <mxGeometry width="50" height="50" relative="1" as="geometry">
            <mxPoint x="440" y="310" as="sourcePoint" />
            <mxPoint x="640" y="310" as="targetPoint" />
          </mxGeometry>
        </mxCell>
        <mxCell id="RDxqro6T1Xwg9U0lS2Xa-13" value="X" style="edgeLabel;html=1;align=center;verticalAlign=middle;resizable=0;points=[];fontSize=15;" vertex="1" connectable="0" parent="RDxqro6T1Xwg9U0lS2Xa-12">
          <mxGeometry x="0.0867" y="1" relative="1" as="geometry">
            <mxPoint as="offset" />
          </mxGeometry>
        </mxCell>
        <mxCell id="RDxqro6T1Xwg9U0lS2Xa-15" value="Y" style="rounded=0;whiteSpace=wrap;html=1;fillColor=#dae8fc;strokeColor=#6c8ebf;shadow=0;glass=0;" vertex="1" parent="1">
          <mxGeometry x="260" y="240" width="60" height="40" as="geometry" />
        </mxCell>
        <mxCell id="RDxqro6T1Xwg9U0lS2Xa-16" value="..." style="rounded=0;whiteSpace=wrap;html=1;" vertex="1" parent="1">
          <mxGeometry x="220" y="240" width="40" height="40" as="geometry" />
        </mxCell>
        <mxCell id="RDxqro6T1Xwg9U0lS2Xa-17" value="Y" style="rounded=0;whiteSpace=wrap;html=1;fillColor=#dae8fc;strokeColor=#6c8ebf;shadow=0;glass=0;" vertex="1" parent="1">
          <mxGeometry x="440" y="240" width="60" height="40" as="geometry" />
        </mxCell>
        <mxCell id="RDxqro6T1Xwg9U0lS2Xa-18" value="Y" style="rounded=0;whiteSpace=wrap;html=1;fillColor=#dae8fc;strokeColor=#6c8ebf;shadow=0;glass=0;" vertex="1" parent="1">
          <mxGeometry x="580" y="240" width="60" height="40" as="geometry" />
        </mxCell>
        <mxCell id="RDxqro6T1Xwg9U0lS2Xa-23" value="..." style="rounded=0;whiteSpace=wrap;html=1;" vertex="1" parent="1">
          <mxGeometry x="500" y="240" width="80" height="40" as="geometry" />
        </mxCell>
      </root>
    </mxGraphModel>
  </diagram>
</mxfile>
